<?xml version="1.0" encoding="UTF-8" standalone="no"?>
<!-- Created with Inkscape (http://www.inkscape.org/) -->

<svg
   xmlns:dc="http://purl.org/dc/elements/1.1/"
   xmlns:cc="http://creativecommons.org/ns#"
   xmlns:rdf="http://www.w3.org/1999/02/22-rdf-syntax-ns#"
   xmlns:svg="http://www.w3.org/2000/svg"
   xmlns="http://www.w3.org/2000/svg"
   xmlns:sodipodi="http://sodipodi.sourceforge.net/DTD/sodipodi-0.dtd"
   xmlns:inkscape="http://www.inkscape.org/namespaces/inkscape"
   id="svg3336"
   version="1.1"
   inkscape:version="0.91 r13725"
   xml:space="preserve"
   width="990"
   height="765"
   viewBox="0 0 990 765"
   sodipodi:docname="LibraryCarpentry_Logo2_Vector.ai.svg"><metadata
     id="metadata3342"><rdf:RDF><cc:Work
         rdf:about=""><dc:format>image/svg+xml</dc:format><dc:type
           rdf:resource="http://purl.org/dc/dcmitype/StillImage" /><dc:title></dc:title></cc:Work></rdf:RDF></metadata><defs
     id="defs3340"><clipPath
       clipPathUnits="userSpaceOnUse"
       id="clipPath3350"><path
         d="M 0,612 792,612 792,0 0,0 0,612 Z"
         id="path3352"
         inkscape:connector-curvature="0" /></clipPath></defs><sodipodi:namedview
     pagecolor="#ffffff"
     bordercolor="#666666"
     borderopacity="1"
     objecttolerance="10"
     gridtolerance="10"
     guidetolerance="10"
     inkscape:pageopacity="0"
     inkscape:pageshadow="2"
     inkscape:window-width="640"
     inkscape:window-height="480"
     id="namedview3338"
     showgrid="false"
     inkscape:zoom="0.65490196"
     inkscape:cx="495"
     inkscape:cy="382.5"
     inkscape:window-x="0"
     inkscape:window-y="0"
     inkscape:window-maximized="0"
     inkscape:current-layer="g3344" /><g
     id="g3344"
     inkscape:groupmode="layer"
     inkscape:label="LibraryCarpentry_Logo_Vector"
     transform="matrix(1.25,0,0,-1.25,0,765)"><g
       id="g3346"><g
         id="g3348"
         clip-path="url(#clipPath3350)"><g
           id="g3354"
           transform="translate(173.498,160.3262)"><path
             d="m 0,0 c 0,0.672 0.576,1.057 1.922,1.057 l 0.383,0 c 1.343,0 1.92,-0.385 1.92,-1.057 l 0,-28.994 13.201,0 c 0.672,0 0.961,-0.432 0.961,-1.442 l 0,-0.767 c 0,-1.008 -0.289,-1.44 -0.961,-1.44 l -15.985,0 C 0.434,-32.643 0,-32.211 0,-31.203 L 0,0 Z"
             style="fill:#7b7979;fill-opacity:1;fill-rule:nonzero;stroke:none"
             id="path3356"
             inkscape:connector-curvature="0" /></g><g
           id="g3358"
           transform="translate(196.7305,160.3262)"><path
             d="m 0,0 c 0,0.672 0.576,1.057 1.92,1.057 l 0.385,0 c 1.343,0 1.92,-0.385 1.92,-1.057 l 0,-31.684 c 0,-0.671 -0.577,-1.054 -1.92,-1.054 l -0.385,0 c -1.344,0 -1.92,0.383 -1.92,1.054 L 0,0 Z"
             style="fill:#7b7979;fill-opacity:1;fill-rule:nonzero;stroke:none"
             id="path3360"
             inkscape:connector-curvature="0" /></g><g
           id="g3362"
           transform="translate(221.5,131.332)"><path
             d="m 0,0 c 4.271,0 6.625,2.4 6.625,6.191 0,3.506 -2.496,5.618 -7.441,5.618 l -6.192,0 L -7.008,0 0,0 Z m -1.439,15.457 c 3.886,0 6.623,2.496 6.623,5.617 0,3.551 -2.016,5.233 -6.817,5.233 l -5.375,0 0,-10.85 5.569,0 z m -9.793,13.057 c 0,1.007 0.431,1.441 1.439,1.441 l 8.594,0 c 7.152,0 10.752,-3.457 10.752,-8.498 0,-3.217 -2.496,-6.527 -5.282,-7.297 l 0,-0.191 c 0,0 6.721,-1.633 6.721,-7.969 0,-6.672 -4.463,-9.648 -12.529,-9.648 l -8.256,0 c -1.008,0 -1.439,0.431 -1.439,1.439 l 0,30.723 z"
             style="fill:#7b7979;fill-opacity:1;fill-rule:nonzero;stroke:none"
             id="path3364"
             inkscape:connector-curvature="0" /></g><g
           id="g3366"
           transform="translate(249.291,146.1172)"><path
             d="m 0,0 c 3.457,0 6.145,2.736 6.145,5.904 0,3.889 -2.592,5.617 -6.481,5.617 l -6,0 L -6.336,0 0,0 Z m -10.561,13.729 c 0,1.007 0.432,1.441 1.44,1.441 l 8.064,0 c 7.491,0 11.571,-2.449 11.571,-8.498 0,-4.127 -2.16,-6.768 -5.522,-8.111 l 0,-0.194 c 2.018,-0.672 3.072,-2.832 4.321,-6 l 3.744,-9.457 c 0.097,-0.287 0.144,-0.527 0.144,-0.672 0,-0.48 -0.623,-0.767 -2.015,-0.767 l -0.481,0 c -0.959,0 -1.728,0.287 -1.92,0.767 l -3.648,9.408 c -1.44,3.745 -3.408,4.706 -7.153,4.706 l -4.32,0 0,-13.827 c 0,-0.671 -0.576,-1.054 -1.92,-1.054 l -0.385,0 c -1.343,0 -1.92,0.383 -1.92,1.054 l 0,31.204 z"
             style="fill:#7b7979;fill-opacity:1;fill-rule:nonzero;stroke:none"
             id="path3368"
             inkscape:connector-curvature="0" /></g><g
           id="g3370"
           transform="translate(283.707,139.877)"><path
             d="M 0,0 -5.041,14.305 -5.664,17.09 -6.432,14.305 -11.473,0 0,0 Z m -19.633,-10.801 11.377,31.537 c 0.192,0.577 0.959,0.77 1.92,0.77 l 1.391,0 c 0.961,0 1.728,-0.193 1.922,-0.77 L 8.354,-10.85 c 0.095,-0.24 0.142,-0.431 0.142,-0.623 0,-0.48 -0.623,-0.816 -2.064,-0.816 l -0.383,0 c -0.961,0 -1.729,0.191 -1.92,0.768 l -2.832,7.873 -14.113,0 -2.737,-7.873 c -0.193,-0.577 -0.961,-0.768 -1.92,-0.768 l -0.24,0 c -1.441,0 -2.064,0.287 -2.064,0.816 0,0.192 0.047,0.383 0.144,0.672"
             style="fill:#7b7979;fill-opacity:1;fill-rule:nonzero;stroke:none"
             id="path3372"
             inkscape:connector-curvature="0" /></g><g
           id="g3374"
           transform="translate(307.9941,146.1172)"><path
             d="m 0,0 c 3.457,0 6.145,2.736 6.145,5.904 0,3.889 -2.592,5.617 -6.481,5.617 l -6,0 L -6.336,0 0,0 Z m -10.561,13.729 c 0,1.007 0.432,1.441 1.44,1.441 l 8.064,0 c 7.489,0 11.571,-2.449 11.571,-8.498 0,-4.127 -2.162,-6.768 -5.522,-8.111 l 0,-0.194 c 2.016,-0.672 3.072,-2.832 4.321,-6 l 3.744,-9.457 c 0.095,-0.287 0.144,-0.527 0.144,-0.672 0,-0.48 -0.625,-0.767 -2.015,-0.767 l -0.481,0 c -0.961,0 -1.728,0.287 -1.92,0.767 l -3.648,9.408 c -1.442,3.745 -3.408,4.706 -7.153,4.706 l -4.32,0 0,-13.827 c 0,-0.671 -0.576,-1.054 -1.922,-1.054 l -0.383,0 c -1.343,0 -1.92,0.383 -1.92,1.054 l 0,31.204 z"
             style="fill:#7b7979;fill-opacity:1;fill-rule:nonzero;stroke:none"
             id="path3376"
             inkscape:connector-curvature="0" /></g><g
           id="g3378"
           transform="translate(333.3359,144.916)"><path
             d="m 0,0 -10.031,14.785 c -0.24,0.338 -0.385,0.625 -0.385,0.865 0,0.528 0.576,0.817 2.209,0.817 l 0.527,0 c 1.008,0 1.68,-0.145 2.065,-0.721 L 2.258,3.938 10.322,15.795 c 0.336,0.527 1.199,0.672 2.16,0.672 1.584,0 2.207,-0.24 2.207,-0.817 0,-0.24 -0.191,-0.527 -0.382,-0.865 L 4.225,-0.143 l 0,-16.13 c 0,-0.672 -0.577,-1.055 -1.92,-1.055 l -0.383,0 C 0.576,-17.328 0,-16.945 0,-16.273 L 0,0 Z"
             style="fill:#7b7979;fill-opacity:1;fill-rule:nonzero;stroke:none"
             id="path3380"
             inkscape:connector-curvature="0" /></g><g
           id="g3382"
           transform="translate(378.6973,161.5742)"><path
             d="m 0,0 c 4.752,0 9.168,-1.68 9.168,-2.977 0,-0.816 -1.008,-2.783 -1.633,-2.783 -0.527,0 -2.832,2.112 -7.439,2.112 -7.682,0 -11.282,-4.032 -11.282,-13.489 0,-9.217 3.553,-13.394 11.088,-13.394 4.946,0 7.633,2.4 8.258,2.4 0.623,0 1.68,-2.015 1.68,-2.592 0,-1.297 -4.32,-3.457 -9.938,-3.457 -10.511,0 -15.457,5.377 -15.457,17.09 C -15.555,-5.617 -10.273,0 0,0"
             style="fill:#7b7979;fill-opacity:1;fill-rule:nonzero;stroke:none"
             id="path3384"
             inkscape:connector-curvature="0" /></g><g
           id="g3386"
           transform="translate(410.4727,139.877)"><path
             d="M 0,0 -5.041,14.305 -5.664,17.09 -6.434,14.305 -11.473,0 0,0 Z m -19.635,-10.801 11.377,31.537 c 0.194,0.577 0.961,0.77 1.92,0.77 l 1.393,0 c 0.961,0 1.728,-0.193 1.92,-0.77 L 8.352,-10.85 c 0.097,-0.24 0.144,-0.431 0.144,-0.623 0,-0.48 -0.623,-0.816 -2.064,-0.816 l -0.383,0 c -0.961,0 -1.729,0.191 -1.922,0.768 l -2.832,7.873 -14.113,0 -2.737,-7.873 c -0.191,-0.577 -0.959,-0.768 -1.92,-0.768 l -0.24,0 c -1.439,0 -2.062,0.287 -2.062,0.816 0,0.192 0.047,0.383 0.142,0.672"
             style="fill:#7b7979;fill-opacity:1;fill-rule:nonzero;stroke:none"
             id="path3388"
             inkscape:connector-curvature="0" /></g><g
           id="g3390"
           transform="translate(434.7598,146.1172)"><path
             d="m 0,0 c 3.457,0 6.145,2.736 6.145,5.904 0,3.889 -2.592,5.617 -6.481,5.617 l -6,0 L -6.336,0 0,0 Z m -10.561,13.729 c 0,1.007 0.432,1.441 1.44,1.441 l 8.064,0 c 7.489,0 11.571,-2.449 11.571,-8.498 0,-4.127 -2.162,-6.768 -5.522,-8.111 l 0,-0.194 c 2.016,-0.672 3.072,-2.832 4.321,-6 l 3.744,-9.457 c 0.095,-0.287 0.144,-0.527 0.144,-0.672 0,-0.48 -0.625,-0.767 -2.015,-0.767 l -0.481,0 c -0.961,0 -1.728,0.287 -1.92,0.767 l -3.648,9.408 c -1.442,3.745 -3.408,4.706 -7.153,4.706 l -4.32,0 0,-13.827 c 0,-0.671 -0.576,-1.054 -1.922,-1.054 l -0.383,0 c -1.343,0 -1.92,0.383 -1.92,1.054 l 0,31.204 z"
             style="fill:#7b7979;fill-opacity:1;fill-rule:nonzero;stroke:none"
             id="path3392"
             inkscape:connector-curvature="0" /></g><g
           id="g3394"
           transform="translate(464.6152,145.6367)"><path
             d="m 0,0 c 1.92,0 5.809,1.008 5.809,6.24 0,4.752 -3.649,5.762 -6.481,5.762 l -6.816,0 L -7.488,0 0,0 Z m -11.713,14.209 c 0,1.008 0.432,1.441 1.44,1.441 l 9.744,0 c 4.129,0 10.705,-1.296 10.705,-9.41 0,-8.785 -7.729,-9.888 -10.225,-9.888 l -7.439,0 0,-13.346 c 0,-0.672 -0.576,-1.055 -1.92,-1.055 l -0.385,0 c -1.344,0 -1.92,0.383 -1.92,1.055 l 0,31.203 z"
             style="fill:#7b7979;fill-opacity:1;fill-rule:nonzero;stroke:none"
             id="path3396"
             inkscape:connector-curvature="0" /></g><g
           id="g3398"
           transform="translate(480.8379,159.8457)"><path
             d="m 0,0 c 0,1.008 0.432,1.441 1.439,1.441 l 16.754,0 c 0.672,0 0.959,-0.433 0.959,-1.441 l 0,-0.768 c 0,-1.007 -0.287,-1.439 -0.959,-1.439 l -13.968,0 0,-10.945 12.527,0 c 0.674,0 0.961,-0.432 0.961,-1.442 l 0,-0.767 c 0,-1.008 -0.287,-1.44 -0.961,-1.44 l -12.527,0 0,-11.713 14.015,0 c 0.672,0 0.961,-0.431 0.961,-1.441 l 0,-0.768 c 0,-1.007 -0.289,-1.439 -0.961,-1.439 l -16.801,0 C 0.432,-32.162 0,-31.73 0,-30.723 L 0,0 Z"
             style="fill:#7b7979;fill-opacity:1;fill-rule:nonzero;stroke:none"
             id="path3400"
             inkscape:connector-curvature="0" /></g><g
           id="g3402"
           transform="translate(506.709,160.3262)"><path
             d="m 0,0 c 0,0.672 0.576,1.057 1.92,1.057 l 1.008,0 c 1.056,0 1.537,-0.241 2.015,-0.912 l 15.315,-23.139 1.439,-2.688 0,25.682 c 0,0.672 0.576,1.057 1.92,1.057 l 0.336,0 c 1.346,0 1.922,-0.385 1.922,-1.057 l 0,-31.684 c 0,-0.671 -0.576,-1.054 -1.922,-1.054 l -0.959,0 c -0.912,0 -1.392,0.24 -1.68,0.672 L 5.473,-8.16 l -1.297,2.447 0,-25.971 c 0,-0.671 -0.576,-1.054 -1.92,-1.054 l -0.336,0 c -1.344,0 -1.92,0.383 -1.92,1.054 L 0,0 Z"
             style="fill:#7b7979;fill-opacity:1;fill-rule:nonzero;stroke:none"
             id="path3404"
             inkscape:connector-curvature="0" /></g><g
           id="g3406"
           transform="translate(548.0371,157.6387)"><path
             d="m 0,0 -9.217,0 c -0.672,0 -0.961,0.432 -0.961,1.439 l 0,0.768 c 0,1.008 0.289,1.441 0.961,1.441 l 22.514,0 c 0.672,0 0.961,-0.433 0.961,-1.441 l 0,-0.768 C 14.258,0.432 13.969,0 13.297,0 l -9.072,0 0,-28.996 c 0,-0.672 -0.577,-1.055 -1.92,-1.055 l -0.385,0 c -1.344,0 -1.92,0.383 -1.92,1.055 L 0,0 Z"
             style="fill:#7b7979;fill-opacity:1;fill-rule:nonzero;stroke:none"
             id="path3408"
             inkscape:connector-curvature="0" /></g><g
           id="g3410"
           transform="translate(578.4707,146.1172)"><path
             d="m 0,0 c 3.455,0 6.145,2.736 6.145,5.904 0,3.889 -2.594,5.617 -6.483,5.617 l -6,0 L -6.338,0 0,0 Z m -10.563,13.729 c 0,1.007 0.434,1.441 1.442,1.441 l 8.064,0 c 7.489,0 11.569,-2.449 11.569,-8.498 0,-4.127 -2.16,-6.768 -5.52,-8.111 l 0,-0.194 c 2.016,-0.672 3.072,-2.832 4.321,-6 l 3.744,-9.457 c 0.095,-0.287 0.144,-0.527 0.144,-0.672 0,-0.48 -0.625,-0.767 -2.017,-0.767 l -0.481,0 c -0.959,0 -1.726,0.287 -1.92,0.767 l -3.648,9.408 c -1.44,3.745 -3.408,4.706 -7.153,4.706 l -4.32,0 0,-13.827 c 0,-0.671 -0.576,-1.054 -1.92,-1.054 l -0.385,0 c -1.343,0 -1.92,0.383 -1.92,1.054 l 0,31.204 z"
             style="fill:#7b7979;fill-opacity:1;fill-rule:nonzero;stroke:none"
             id="path3412"
             inkscape:connector-curvature="0" /></g><g
           id="g3414"
           transform="translate(603.8125,144.916)"><path
             d="m 0,0 -10.033,14.785 c -0.24,0.338 -0.383,0.625 -0.383,0.865 0,0.528 0.576,0.817 2.207,0.817 l 0.529,0 c 1.008,0 1.68,-0.145 2.063,-0.721 L 2.256,3.938 10.32,15.795 c 0.336,0.527 1.201,0.672 2.16,0.672 1.586,0 2.209,-0.24 2.209,-0.817 0,-0.24 -0.191,-0.527 -0.384,-0.865 l -10.08,-14.928 0,-16.13 c 0,-0.672 -0.577,-1.055 -1.92,-1.055 l -0.385,0 c -1.344,0 -1.92,0.383 -1.92,1.055 L 0,0 Z"
             style="fill:#7b7979;fill-opacity:1;fill-rule:nonzero;stroke:none"
             id="path3416"
             inkscape:connector-curvature="0" /></g><g
           id="g3418"
           transform="translate(545.1367,208.623)"><path
             d="m 0,0 -19.125,0 c -1.098,0 -1.984,-0.885 -1.984,-1.979 l 0,-1.175 -13.364,0 0,6.064 c 0,1.221 -0.984,2.209 -2.199,2.209 l -1.59,0 0,23.838 -9.605,0 0,-23.838 -1.59,0 c -1.217,0 -2.199,-0.988 -2.199,-2.209 l 0,-6.064 -42.451,0 0.009,0.81 c 0,0.791 -0.748,2.407 -1.461,2.407 l -1.14,0 0,0.023 -7.354,-0.002 0,-15.854 4.178,0 c 0.131,-0.048 0.266,-0.091 0.41,-0.091 l 3.906,0 c 0.713,0 1.288,0.642 1.288,1.433 l 0.041,2.709 42.574,0 0,-6.642 c 0,-1.221 0.982,-2.209 2.199,-2.209 l 12.785,0 c 1.215,0 2.199,0.988 2.199,2.209 l 0,6.642 13.364,0 0,-1.754 c 0,-1.093 0.886,-1.978 1.984,-1.978 l 19.125,0 c 1.096,0 1.984,0.885 1.984,1.978 l 0,11.494 C 1.984,-0.885 1.096,0 0,0"
             style="fill:#7b7979;fill-opacity:1;fill-rule:nonzero;stroke:none"
             id="path3420"
             inkscape:connector-curvature="0" /></g><g
           id="g3422"
           transform="translate(278.7402,280.1211)"><path
             d="m 0,0 -36.197,0 c 9.541,-26.602 27.375,-23.092 27.375,-23.092 L 0,-23.428 0,0 Z"
             style="fill:#7b7979;fill-opacity:1;fill-rule:nonzero;stroke:none"
             id="path3424"
             inkscape:connector-curvature="0" /></g><g
           id="g3426"
           transform="translate(302.9863,267.0625)"><path
             d="m 0,0 c 0,-3.016 -2.264,-5.463 -5.059,-5.463 -2.791,0 -5.056,2.447 -5.056,5.463 0,3.016 2.265,5.461 5.056,5.461 C -2.264,5.461 0,3.016 0,0 m 10.129,209.074 0,8.469 -30.371,0 0,-243.479 30.371,0 0,64.17 -7.734,0 0,5.678 7.734,0 0,17.916 -12.682,0 0,5.68 12.682,0 0,17.914 -7.734,0 0,5.68 7.734,0 0,17.914 -12.682,0 0,5.679 12.682,0 0,17.916 -7.734,0 0,5.678 7.734,0 0,17.916 -12.682,0 0,5.678 12.682,0 0,17.916 -7.734,0 0,5.68 7.734,0 0,17.916 -12.682,0 0,5.679 12.682,0 z"
             style="fill:#7b7979;fill-opacity:1;fill-rule:nonzero;stroke:none"
             id="path3428"
             inkscape:connector-curvature="0" /></g><g
           id="g3430"
           transform="translate(435.0547,278.8965)"><path
             d="m 0,0 c 0.143,0.408 0.289,0.803 0.426,1.225 l -2.629,0 L -0.996,0 0,0 Z"
             style="fill:#7b7979;fill-opacity:1;fill-rule:nonzero;stroke:none"
             id="path3432"
             inkscape:connector-curvature="0" /></g><g
           id="g3434"
           transform="translate(386.4023,280.1211)"><path
             d="m 0,0 -69.283,0 0,-25.971 c 9.594,-3.48 13.34,-10.605 25.592,-10.605 20.806,0 14.921,12.006 38.164,12.469 l 28.041,1.015 c 0,0 0.105,-0.013 0.283,-0.029 L 0,0 Z"
             style="fill:#7b7979;fill-opacity:1;fill-rule:nonzero;stroke:none"
             id="path3436"
             inkscape:connector-curvature="0" /></g><g
           id="g3438"
           transform="translate(404.3438,315.9824)"><path
             d="m 0,0 c 0,-4.99 -3.162,-9.037 -7.059,-9.037 -3.898,0 -7.058,4.047 -7.058,9.037 l 0,101.807 c 0,4.996 3.16,9.041 7.058,9.041 3.897,0 7.059,-4.045 7.059,-9.041 L 0,0 Z m 111.539,129.529 -2.76,0 0,6.955 c 0.141,0.291 0.229,0.62 0.229,0.973 l 0,29.018 c 0,1.177 -0.895,2.132 -1.998,2.132 l -83.301,0 c -0.57,0.063 -1.135,-0.097 -1.537,-0.509 l -45.256,-45.959 c -0.441,-0.45 -0.592,-1.09 -0.486,-1.735 l 0,-144.162 c 0,-0.926 0.422,-1.707 1.007,-2.008 l 43.399,-44.015 c 0.137,-0.137 0.295,-0.235 0.461,-0.313 0.289,-0.168 0.613,-0.271 0.965,-0.271 l 62.677,0 0,-2.338 c 0,-1.188 0.916,-2.152 2.045,-2.152 l 19.344,0 c 1.131,0 2.045,0.964 2.045,2.152 l 0,38.664 c 0,1.189 -0.914,2.152 -2.045,2.152 l -19.344,0 c -1.129,0 -2.045,-0.963 -2.045,-2.152 l 0,-3.047 -49.89,0 -25.524,25.889 0,120.408 25.713,26.113 40.908,0 0,-5.795 -2.99,0 c -1.191,0 -2.156,-0.92 -2.156,-2.052 l 0,-6.233 c 0,-1.137 0.965,-2.055 2.156,-2.055 l 38.383,0 c 1.19,0 2.158,0.918 2.158,2.055 l 0,6.233 c 0,1.132 -0.968,2.052 -2.158,2.052"
             style="fill:#7b7979;fill-opacity:1;fill-rule:nonzero;stroke:none"
             id="path3440"
             inkscape:connector-curvature="0" /></g><g
           id="g3442"
           transform="translate(493.4121,308.9863)"><path
             d="m 0,0 3.998,0 0,-21.465 8.918,0 0,21.465 4,0 c 1.023,0 1.855,0.781 1.855,1.746 l 0,5.291 c 0,0.088 -0.015,0.174 -0.027,0.258 l 0,2.295 -20.572,0 0,-2.295 C -1.842,7.211 -1.855,7.125 -1.855,7.037 l 0,-5.291 C -1.855,0.781 -1.025,0 0,0"
             style="fill:#7b7979;fill-opacity:1;fill-rule:nonzero;stroke:none"
             id="path3444"
             inkscape:connector-curvature="0" /></g></g></g></g></svg>